<svg width="200" height="200" xmlns="http://www.w3.org/2000/svg">
  <rect width="100%" height="100%" fill="black" />

  <g stroke="lightblue" stroke-width="1" opacity="0.25">
    <line x1="0" y1="10" x2="200" y2="10" />
    <line x1="0" y1="30" x2="200" y2="30" />
    <line x1="0" y1="50" x2="200" y2="50" />
    <line x1="0" y1="70" x2="200" y2="70" />
    <line x1="0" y1="90" x2="200" y2="90" />
    <line x1="0" y1="110" x2="200" y2="110" />
    <line x1="0" y1="130" x2="200" y2="130" />
    <line x1="0" y1="150" x2="200" y2="150" />
    <line x1="0" y1="170" x2="200" y2="170" />
    <line x1="0" y1="190" x2="200" y2="190" />
  </g>

  <g stroke="lightblue" stroke-width="1" opacity="0.25">
    <line x1="10" y1="0" x2="10" y2="200" />
    <line x1="30" y1="0" x2="30" y2="200" />
    <line x1="50" y1="0" x2="50" y2="200" />
    <line x1="70" y1="0" x2="70" y2="200" />
    <line x1="90" y1="0" x2="90" y2="200" />
    <line x1="110" y1="0" x2="110" y2="200" />
    <line x1="130" y1="0" x2="130" y2="200" />
    <line x1="150" y1="0" x2="150" y2="200" />
    <line x1="170" y1="0" x2="170" y2="200" />
    <line x1="190" y1="0" x2="190" y2="200" />
  </g>
</svg>
